<svg xmlns="http://www.w3.org/2000/svg" xmlns:xlink="http://www.w3.org/1999/xlink" width="500" zoomAndPan="magnify" viewBox="0 0 375 374.999991" height="500" preserveAspectRatio="xMidYMid meet" version="1.0"><defs><clipPath id="45c8716a9f"><path d="M 53.328125 107.730469 L 321.707031 107.730469 L 321.707031 267.480469 L 53.328125 267.480469 Z M 53.328125 107.730469 " clip-rule="nonzero"/></clipPath></defs><g clip-path="url(#45c8716a9f)"><path fill="#0a0a0a" d="M 53.25 107.730469 L 146.308594 267.269531 L 187.496094 196.277344 L 228.84375 267.269531 L 321.742188 107.730469 L 261.761719 107.730469 L 218.640625 181.996094 L 227.394531 197.082031 L 270.515625 123.140625 L 295.164062 123.140625 L 228.84375 236.765625 L 196.410156 181.1875 L 239.207031 107.730469 L 221.378906 107.730469 L 187.496094 165.9375 L 153.613281 107.730469 L 135.945312 107.730469 L 178.742188 181.1875 L 146.308594 236.765625 L 79.992188 123.140625 L 102.546875 123.140625 L 145.664062 197.082031 L 154.578125 181.996094 L 111.296875 107.730469 Z M 53.25 107.730469 " fill-opacity="1" fill-rule="nonzero"/></g></svg>